/* XPM */
static char *close_pressed_xpm[] = {
/* columns rows colors chars-per-pixel */
"24 24 40 1 ",
"  c #444444",
". c gray27",
"X c #464646",
"o c #484848",
"O c #494949",
"+ c #4C4C4C",
"@ c gray30",
"# c #505050",
"$ c #515151",
"% c gray32",
"& c #535353",
"* c #5A5A5A",
"= c #5B5B5B",
"- c #5F5F5F",
"; c #606060",
": c #6D6D6D",
"> c gray57",
", c #929292",
"< c #939393",
"1 c #949494",
"2 c gray59",
"3 c #979797",
"4 c #989898",
"5 c #999999",
"6 c #9B9B9B",
"7 c #9C9C9C",
"8 c #9D9D9D",
"9 c #9E9E9E",
"0 c #9F9F9F",
"q c gray79",
"w c #CACACA",
"e c #DEDEDE",
"r c #DFDFDF",
"t c #EFEFEF",
"y c #F1F1F1",
"u c #F2F2F2",
"i c #F5F5F5",
"p c #F6F6F6",
"a c #F7F7F7",
"s c white",
/* pixels */
"::::::::::::::::::::::::",
"ssssssssssssssssssssssss",
"pppppppppppppppppppppppp",
"pppppppppppppppppppppppp",
"pppppppppppppppppppppppp",
"pppppppppppppppppppppppp",
"ppppppppt8;  ;8tpppppppp",
"pppppppe* @$$@ =eppppppp",
"ppppppt*O%%%%%%o=tpppppp",
"pppppp8 %q,%%>q% 0pppppp",
"pppppp-@%3w11w6%@;pppppp",
"pppppp.$%&3ww8&%$.pppppp",
"pppppp.$%&2ww5&%$Xpppppp",
"iiiiii-+$<w44w1$+;iiiiii",
"iiiiii7 $q1&&1q$ 9iiiiii",
"iiiiiit*o$$$$$$o*yiiiiii",
"iiiiiiir* +##+ *riiiiiii",
"iiiiiiiiu0-  -0uiiiiiiii",
"iiiiiiiiippaappiiiiiiiii",
"iiiiiiiiiiiiiiiiiiiiiiii",
"iiiiiiiiiiiiiiiiiiiiiiii",
"iiiiiiiiiiiiiiiiiiiiiiii",
"iiiiiiiiiiiiiiiiiiiiiiii",
"iiiiiiiiiiiiiiiiiiiiiiii"
};
