/* XPM */
static char *close_prelight_xpm[] = {
/* columns rows colors chars-per-pixel */
"24 24 39 1 ",
"  c #525252",
". c #535353",
"X c #545454",
"o c #595959",
"O c gray37",
"+ c #5F5F5F",
"@ c #636363",
"# c #646464",
"$ c #656565",
"% c #666666",
"& c #676767",
"* c #6B6B6B",
"= c #6C6C6C",
"- c #6D6D6D",
"; c #A4A4A4",
": c #A5A5A5",
"> c #A6A6A6",
", c #B4B4B4",
"< c #B6B6B6",
"1 c #B8B8B8",
"2 c #B9B9B9",
"3 c gray73",
"4 c #BBBBBB",
"5 c #BCBCBC",
"6 c gray74",
"7 c gray",
"8 c gray76",
"9 c gray77",
"0 c #E0E0E0",
"q c #E1E1E1",
"w c #F0F0F0",
"e c #F1F1F1",
"r c #F2F2F2",
"t c #F5F5F5",
"y c #F6F6F6",
"u c #F7F7F7",
"i c gray98",
"p c gray99",
"a c white",
/* pixels */
"------------------------",
"aaaaaaaaaaaaaaaaaaaaaaaa",
"yyyyyyyyyyyyyyyyyyyyyyyy",
"yyyyyyyyyyyyyyyyyyyyyyyy",
"yyyyyyyyyyyyyyyyyyyyyyyy",
"yyyyyyyyyyyyyyyyyyyyyyyy",
"yyyyyyyyw;=  =:wyyyyyyyy",
"yyyyyyy0&X+##+X&0yyyyyyy",
"yyyyyyw&o$$$$$$o&wyyyyyy",
"yyyyyy;X$i<$$,p%X:yyyyyy",
"yyyyyy=+$5a42a8$+-yyyyyy",
"yyyyyy.#$%7aa9%$#.yyyyyy",
"yyyyyy.#$$<aa8%$#Xyyyyyy",
"tttttt*+#1a76a4#O=tttttt",
"tttttt:X#i3%%2i%X:tttttt",
"ttttttw%o######o%etttttt",
"tttttttq%X+@@OX%qttttttt",
"ttttttttr>=..=>rtttttttt",
"tttttttttyyuuyyttttttttt",
"tttttttttttttttttttttttt",
"tttttttttttttttttttttttt",
"tttttttttttttttttttttttt",
"tttttttttttttttttttttttt",
"tttttttttttttttttttttttt"
};
