/* XPM */
static char *close_inactive_xpm[] = {
/* columns rows colors chars-per-pixel */
"24 24 55 1 ",
"  c #6D6D6D",
". c #8B8B8B",
"X c #8E8E8E",
"o c #909090",
"O c #929292",
"+ c #939393",
"@ c #959595",
"# c #969696",
"$ c #979797",
"% c #989898",
"& c #9A9A9A",
"* c #9B9B9B",
"= c #9C9C9C",
"- c #9E9E9E",
"; c #9F9F9F",
": c #A1A1A1",
"> c #A2A2A2",
", c #A4A4A4",
"< c #A5A5A5",
"1 c #A6A6A6",
"2 c #AAAAAA",
"3 c #ABABAB",
"4 c #ACACAC",
"5 c #ADADAD",
"6 c #AEAEAE",
"7 c #B0B0B0",
"8 c #B1B1B1",
"9 c #B4B4B4",
"0 c #B5B5B5",
"q c #B6B6B6",
"w c #BABABA",
"e c #BBBBBB",
"r c #CDCDCD",
"t c #CFCFCF",
"y c #D0D0D0",
"u c #D1D1D1",
"i c #D2D2D2",
"p c #D3D3D3",
"a c #D4D4D4",
"s c #D6D6D6",
"d c #ECECEC",
"f c #EDEDED",
"g c #EEEEEE",
"h c #EFEFEF",
"j c #F0F0F0",
"k c #F1F1F1",
"l c #F2F2F2",
"z c #F4F4F4",
"x c #F5F5F5",
"c c #F6F6F6",
"v c #F7F7F7",
"b c #F8F8F8",
"n c #F9F9F9",
"m c #FAFAFA",
"M c white",
/* pixels */
"                        ",
"MMMMMMMMMMMMMMMMMMMMMMMM",
"cccccccccccccccccccccccc",
"cccccccccccccccccccccccc",
"cccccccccccccccccccccccc",
"cccccccccccccccccccccccc",
"cccccccczr3**3rzcccccccc",
"cccccccd2@X..X@2dccccccc",
"ccccccz3+1kmml6+4zcccccc",
"cccccct$1bnbbnn1%ycccccc",
"cccccc7OdbvvvvbdO8cccccc",
"cccccc,oxvvvvvvxo,cccccc",
"cccccc<OlvvvvvvkO<cccccc",
"xxxxxc9#axxxxxxa#9cxxxxx",
"xxxxxci;:gxxxxf=;pcxxxxx",
"xxxxxxc0=-uhhu-=0cxxxxxx",
"xxxxxxcjq>&##&>qlcxxxxxx",
"xxxxxxxvbsw55esbcxxxxxxx",
"xxxxxxxxxbnmmnbxxxxxxxxx",
"xxxxxxxxxxxxxxxxxxxxxxxx",
"xxxxxxxxxxxxxxxxxxxxxxxx",
"xxxxxxxxxxxxxxxxxxxxxxxx",
"xxxxxxxxxxxxxxxxxxxxxxxx",
"xxxxxxxxxxxxxxxxxxxxxxxx"
};
