/* XPM */
static char *hide_active_xpm[] = {
/* columns rows colors chars-per-pixel */
"24 24 61 1 ",
"  c gray29",
". c gray31",
"X c gray32",
"o c #545454",
"O c #555555",
"+ c #565656",
"@ c #585858",
"# c gray36",
"$ c #5D5D5D",
"% c #626262",
"& c gray39",
"* c #656565",
"= c #676767",
"- c #686868",
"; c #696969",
": c #6D6D6D",
"> c #6E6E6E",
", c #707070",
"< c #737373",
"1 c #7B7B7B",
"2 c #7C7C7C",
"3 c gray49",
"4 c #7E7E7E",
"5 c #808080",
"6 c gray52",
"7 c gray53",
"8 c #8B8B8B",
"9 c gray55",
"0 c #8D8D8D",
"q c #909090",
"w c #969696",
"e c #979797",
"r c #B3B3B3",
"t c #B4B4B4",
"y c #B7B7B7",
"u c #B8B8B8",
"i c #BDBDBD",
"p c #BEBEBE",
"a c #BFBFBF",
"s c #C5C5C5",
"d c #C6C6C6",
"f c #CACACA",
"g c #E5E5E5",
"h c #EBEBEB",
"j c #ECECEC",
"k c gray93",
"l c #EEEEEE",
"z c #EFEFEF",
"x c #F2F2F2",
"c c #F3F3F3",
"v c #F5F5F5",
"b c #F6F6F6",
"n c #F7F7F7",
"m c #F8F8F8",
"M c #F9F9F9",
"N c #FAFAFA",
"B c #FBFBFB",
"V c gray99",
"C c #FDFDFD",
"Z c #FEFEFE",
"A c white",
/* pixels */
"::::::::::::::::::::::::",
"AAAAAAAAAAAAAAAAAAAAAAAA",
"bbbbbbbbbbbbbbbbbbbbbbbb",
"bbbbbbbbbbbbbbbbbbbbbbbb",
"bbbbbbbbbbbbbbbbbbbbbbbb",
"bbbbbbbbbbbbbbbbbbbbbbbb",
"bbbbbbbbxr3&&3txbbbbbbbb",
"bbbbbbbg1@.  .@1gbbbbbbb",
"bbbbbbx3O2bZZb9+4xbbbbbb",
"bbbbbby#2CCCCCC2$ubbbbbb",
"bbbbbb6olVVVVVVko7bbbbbb",
"bbbbbb,XmBBBBBBMX,bbbbbb",
"bbbbbb<ovMMMMMMco<bbbbbb",
"vvvvvn8#fmmmmmmd#0nvvvvv",
"vvvvvnp;>jbbbbh=;anvvvvv",
"vvvvvvn0*-ijji-*0mvvvvvv",
"vvvvvvnzq>%##%>qznvvvvvv",
"vvvvvvvmBsw55esBmvvvvvvv",
"vvvvvvvvvNCZZCNvvvvvvvvv",
"vvvvvvvvvvvvvvvvvvvvvvvv",
"vvvvvvvvvvvvvvvvvvvvvvvv",
"vvvvvvvvvvvvvvvvvvvvvvvv",
"vvvvvvvvvvvvvvvvvvvvvvvv",
"vvvvvvvvvvvvvvvvvvvvvvvv"
};
