/* XPM */
static char *hide_pressed_xpm[] = {
/* columns rows colors chars-per-pixel */
"24 24 29 1 ",
"  c #444444",
". c gray27",
"X c #464646",
"o c #484848",
"O c #494949",
"+ c #4C4C4C",
"@ c gray30",
"# c #505050",
"$ c #515151",
"% c gray32",
"& c #5A5A5A",
"* c #5B5B5B",
"= c #5F5F5F",
"- c #606060",
"; c #6D6D6D",
": c #9C9C9C",
"> c #9D9D9D",
", c #9E9E9E",
"< c #9F9F9F",
"1 c #CACACA",
"2 c #DEDEDE",
"3 c #DFDFDF",
"4 c #EFEFEF",
"5 c #F1F1F1",
"6 c #F2F2F2",
"7 c #F5F5F5",
"8 c #F6F6F6",
"9 c #F7F7F7",
"0 c white",
/* pixels */
";;;;;;;;;;;;;;;;;;;;;;;;",
"000000000000000000000000",
"888888888888888888888888",
"888888888888888888888888",
"888888888888888888888888",
"888888888888888888888888",
"888888884>-  ->488888888",
"88888882& @$$@ *28888888",
"8888884&O%%%%%%o*4888888",
"888888> %%%%%%%% <888888",
"888888=@%%%%%%%%@-888888",
"888888.$%111111%$.888888",
"888888.$%111111%$X888888",
"777777=+$$$$$$$$+-777777",
"777777: $$$$$$$$ ,777777",
"7777774&o$$$$$$o&5777777",
"77777773& +##+ &37777777",
"777777776<=  =<677777777",
"777777777889988777777777",
"777777777777777777777777",
"777777777777777777777777",
"777777777777777777777777",
"777777777777777777777777",
"777777777777777777777777"
};
