/* XPM */
static char *hide_prelight_xpm[] = {
/* columns rows colors chars-per-pixel */
"24 24 26 1 ",
"  c #525252",
". c #535353",
"X c #545454",
"o c #595959",
"O c gray37",
"+ c #5F5F5F",
"@ c #636363",
"# c #646464",
"$ c #656565",
"% c #666666",
"& c #676767",
"* c #6B6B6B",
"= c #6C6C6C",
"- c #6D6D6D",
"; c #A4A4A4",
": c #A5A5A5",
"> c #A6A6A6",
", c #E0E0E0",
"< c #E1E1E1",
"1 c #F0F0F0",
"2 c #F1F1F1",
"3 c #F2F2F2",
"4 c #F5F5F5",
"5 c #F6F6F6",
"6 c #F7F7F7",
"7 c white",
/* pixels */
"------------------------",
"777777777777777777777777",
"555555555555555555555555",
"555555555555555555555555",
"555555555555555555555555",
"555555555555555555555555",
"555555551;=  =:155555555",
"5555555,&X+##+X&,5555555",
"5555551&o$$$$$$o&1555555",
"555555;X$$$$$$$$X:555555",
"555555=+$$$$$$$$+-555555",
"555555.#$777777$#.555555",
"555555.#$777777$#X555555",
"444444*+########O=444444",
"444444:X########X:444444",
"4444441%o######o%2444444",
"4444444<%X+@@OX%<4444444",
"444444443>=..=>344444444",
"444444444556655444444444",
"444444444444444444444444",
"444444444444444444444444",
"444444444444444444444444",
"444444444444444444444444",
"444444444444444444444444"
};
