/* XPM */
static char *maximize_pressed_xpm[] = {
/* columns rows colors chars-per-pixel */
"24 24 37 1 ",
"  c #444444",
". c gray27",
"X c #464646",
"o c #484848",
"O c #494949",
"+ c #4C4C4C",
"@ c gray30",
"# c #505050",
"$ c #515151",
"% c gray32",
"& c #535353",
"* c #545454",
"= c #555555",
"- c #5A5A5A",
"; c #5B5B5B",
": c #5F5F5F",
"> c #606060",
", c #6D6D6D",
"< c #9C9C9C",
"1 c #9D9D9D",
"2 c #9E9E9E",
"3 c #9F9F9F",
"4 c gray63",
"5 c #A4A4A4",
"6 c #A7A7A7",
"7 c gray70",
"8 c #B4B4B4",
"9 c #CACACA",
"0 c #DEDEDE",
"q c #DFDFDF",
"w c #EFEFEF",
"e c #F1F1F1",
"r c #F2F2F2",
"t c #F5F5F5",
"y c #F6F6F6",
"u c #F7F7F7",
"i c white",
/* pixels */
",,,,,,,,,,,,,,,,,,,,,,,,",
"iiiiiiiiiiiiiiiiiiiiiiii",
"yyyyyyyyyyyyyyyyyyyyyyyy",
"yyyyyyyyyyyyyyyyyyyyyyyy",
"yyyyyyyyyyyyyyyyyyyyyyyy",
"yyyyyyyyyyyyyyyyyyyyyyyy",
"yyyyyyyyw1>  >1wyyyyyyyy",
"yyyyyyy0- @$$@ ;0yyyyyyy",
"yyyyyyw-O%%%%%%o;wyyyyyy",
"yyyyyy1 %%=5997% 3yyyyyy",
"yyyyyy:@%=%=599%@>yyyyyy",
"yyyyyy.$&6*%&49%$.yyyyyy",
"yyyyyy.$&96*%&4%$Xyyyyyy",
"tttttt:+&995*$*$+>tttttt",
"tttttt< $8995*$$ 2tttttt",
"ttttttw-o$$$$$$o-etttttt",
"tttttttq- +##+ -qttttttt",
"ttttttttr3:  :3rtttttttt",
"tttttttttyyuuyyttttttttt",
"tttttttttttttttttttttttt",
"tttttttttttttttttttttttt",
"tttttttttttttttttttttttt",
"tttttttttttttttttttttttt",
"tttttttttttttttttttttttt"
};
