/* XPM */
static char *maximize_prelight_xpm[] = {
/* columns rows colors chars-per-pixel */
"24 24 32 1 ",
"  c #525252",
". c #535353",
"X c #545454",
"o c #595959",
"O c gray37",
"+ c #5F5F5F",
"@ c #636363",
"# c #646464",
"$ c #656565",
"% c #666666",
"& c #676767",
"* c #686868",
"= c #696969",
"- c #6B6B6B",
"; c #6C6C6C",
": c #6D6D6D",
"> c #A4A4A4",
", c #A5A5A5",
"< c #A6A6A6",
"1 c gray79",
"2 c #CECECE",
"3 c #D1D1D1",
"4 c #E0E0E0",
"5 c #E1E1E1",
"6 c #E2E2E2",
"7 c #F0F0F0",
"8 c #F1F1F1",
"9 c #F2F2F2",
"0 c #F5F5F5",
"q c #F6F6F6",
"w c #F7F7F7",
"e c white",
/* pixels */
"::::::::::::::::::::::::",
"eeeeeeeeeeeeeeeeeeeeeeee",
"qqqqqqqqqqqqqqqqqqqqqqqq",
"qqqqqqqqqqqqqqqqqqqqqqqq",
"qqqqqqqqqqqqqqqqqqqqqqqq",
"qqqqqqqqqqqqqqqqqqqqqqqq",
"qqqqqqqq7>;  ;,7qqqqqqqq",
"qqqqqqq4&X+##+X&4qqqqqqq",
"qqqqqq7&o$$$$$$o&7qqqqqq",
"qqqqqq>X$$*2ee4$X,qqqqqq",
"qqqqqq;+$*$*2ee$+:qqqqqq",
"qqqqqq.#%3=$&1e$#.qqqqqq",
"qqqqqq.#%e3=$&1$#Xqqqqqq",
"000000-+%ee2&#&#O;000000",
"000000,X#6ee2&##X,000000",
"0000007%o######o%8000000",
"00000005%X+@@OX%50000000",
"000000009<;..;<900000000",
"000000000qqwwqq000000000",
"000000000000000000000000",
"000000000000000000000000",
"000000000000000000000000",
"000000000000000000000000",
"000000000000000000000000"
};
