/* XPM */
static char *menu_inactive_xpm[] = {
/* columns rows colors chars-per-pixel */
"16 22 19 1 ",
"  c #7B7B7B",
". c gray49",
"X c #7E7E7E",
"o c gray50",
"O c #9F9F9F",
"+ c #A0A0A0",
"@ c gray63",
"# c #A2A2A2",
"$ c #A7A7A7",
"% c #A9A9A9",
"& c #BBBBBB",
"* c #DEDEDE",
"= c #E0E0E0",
"- c #E2E2E2",
"; c #E9E9E9",
": c #F4F4F4",
"> c #F5F5F5",
", c #F6F6F6",
"< c None",
/* pixels */
"<<<<<<<<<<<<<<<<",
"<<<<<<<<<<<<<<<<",
",,,,,,,,,,,,,,,,",
",,,,,,,,,,,,,,,,",
",,,,,,,,,,,,,,,,",
",,,,,,,,,,,,,,,,",
",,,,,,,,,,,,,,,,",
",,,,,,,,,,,,,,,,",
",,,,,,,,,,,,,,,,",
",,,,&*,,,,*&,,,,",
",,,,O ;,,; +,,,,",
",,,,,%.=-X$,,,,,",
",,,,,,#oo@,,,,,,",
">>>>>>:++:>>>>>>",
">>>>>>>>>>>>>>>>",
">>>>>>>>>>>>>>>>",
">>>>>>>>>>>>>>>>",
">>>>>>>>>>>>>>>>",
">>>>>>>>>>>>>>>>",
">>>>>>>>>>>>>>>>",
">>>>>>>>>>>>>>>>",
">>>>>>>>>>>>>>>>"
};
