/* XPM */
static char *menu_active_xpm[] = {
/* columns rows colors chars-per-pixel */
"16 22 21 1 ",
"  c black",
". c #040404",
"X c #060606",
"o c #070707",
"O c gray3",
"+ c #484848",
"@ c #494949",
"# c #4A4A4A",
"$ c #4C4C4C",
"% c gray30",
"& c #585858",
"* c #5D5D5D",
"= c gray50",
"- c #C6C6C6",
"; c #CBCBCB",
": c #CECECE",
"> c #DBDBDB",
", c #F3F3F3",
"< c #F5F5F5",
"1 c #F6F6F6",
"2 c None",
/* pixels */
"2222222222222222",
"2222222222222222",
"1111111111111111",
"1111111111111111",
"1111111111111111",
"1111111111111111",
"1111111111111111",
"1111111111111111",
"1111111111111111",
"1111=-1111-=1111",
"1111+ >11> @1111",
"11111*.;:X&11111",
"111111%Oo$111111",
"<<<<<<,##,<<<<<<",
"<<<<<<<<<<<<<<<<",
"<<<<<<<<<<<<<<<<",
"<<<<<<<<<<<<<<<<",
"<<<<<<<<<<<<<<<<",
"<<<<<<<<<<<<<<<<",
"<<<<<<<<<<<<<<<<",
"<<<<<<<<<<<<<<<<",
"<<<<<<<<<<<<<<<<"
};
