/* XPM */
static char *shade_inactive_xpm[] = {
/* columns rows colors chars-per-pixel */
"16 22 4 1 ",
"  c #939393",
". c #F5F5F5",
"X c #F6F6F6",
"o c None",
/* pixels */
"oooooooooooooooo",
"oooooooooooooooo",
"XXXXXXXXXXXXXXXX",
"XXXXXXXXXXXXXXXX",
"XXXXXXXXXXXXXXXX",
"XXXXXXXXXXXXXXXX",
"XXXXXXXXXXXXXXXX",
"XXXXXXXXXXXXXXXX",
"XXXXXXX  XXXXXXX",
"XXXXXX    XXXXXX",
"XXXXX      XXXXX",
"XXXX        XXXX",
"XXXXXXXXXXXXXXXX",
"....        ....",
"....        ....",
"................",
"................",
"................",
"................",
"................",
"................",
"................"
};
