/* XPM */
static char *top_left_active_shaded_xpm[] = {
/* columns rows colors chars-per-pixel */
"5 24 17 1 ",
"  c #6D6D6D",
". c #6F6F6F",
"X c #727272",
"o c #7A7A7A",
"O c #898989",
"+ c #8B8B8B",
"@ c gray55",
"# c #A9A9A9",
"$ c gray71",
"% c gray93",
"& c #F5F5F5",
"* c #F6F6F6",
"= c gray97",
"- c #F9F9F9",
"; c #FEFEFE",
": c white",
"> c None",
/* pixels */
">>@oX",
">O#%:",
"+$;-*",
"o==**",
".****",
" ****",
" ****",
" ****",
" ****",
" ****",
" ****",
" ****",
" ****",
" &&&&",
" &&&&",
" &&&&",
" &&&&",
" &&&&",
" &&&&",
" &&&&",
" &&&&",
" &&&&",
" &&&&",
" &&&&"
};
