/* XPM */
static char *close_pressed_xpm[] = {
/* columns rows colors chars-per-pixel */
"24 24 52 1 ",
"  c black",
". c #141414",
"X c #151515",
"o c #161616",
"O c #171717",
"+ c #181818",
"@ c #191919",
"# c #1A1A1A",
"$ c #1C1C1C",
"% c #1D1D1D",
"& c #1E1E1E",
"* c #1F1F1F",
"= c #313131",
"- c #343434",
"; c #353535",
": c #3C3C3C",
"> c #3D3D3D",
", c #454545",
"< c #474747",
"1 c #484848",
"2 c #494949",
"3 c #4A4A4A",
"4 c #4B4B4B",
"5 c #4C4C4C",
"6 c #4D4D4D",
"7 c #4E4E4E",
"8 c #4F4F4F",
"9 c #525252",
"0 c #535353",
"q c #545454",
"w c #565656",
"e c #595959",
"r c #5A5A5A",
"t c #5C5C5C",
"y c #5D5D5D",
"u c #5E5E5E",
"i c #686868",
"p c #6B6B6B",
"a c #6D6D6D",
"s c #6E6E6E",
"d c #707070",
"f c #717171",
"g c #727272",
"h c #737373",
"j c #757575",
"k c #767676",
"l c #797979",
"z c #7A7A7A",
"x c #7D7D7D",
"c c #B7B7B7",
"v c #B9B9B9",
"b c #BABABA",
/* pixels */
"                        ",
"dddddddddddddddddddddddd",
"888888888888888888888888",
"777788787887777788787887",
"777777787877777777787877",
"777777777766777777777766",
"676666674=&XX&=366677767",
"6666666,$X+@@+X$,6666676",
"6666663$o@@@@@@o$3666666",
"556555=X@cs@@ac@X=666555",
"555555%O@jbgfbz@O%555555",
"544555X@@#kbbx#@@X554545",
"554447X+@#hvbl#@+X745444",
"444449&O@fvkkvg@O&944444",
"444439-.@cf##gc@.;934433",
"434335t$X+@+@+@X$y543343",
"3323330r%.O++O.%e0332333",
"3223322wi>*XX*:iq2233333",
"232222225upffpu522222222",
"221112122222221112122222",
"121222211121121222211121",
"111211111111111211111111",
"<1111<111<<1<1111<111<<1",
"<1<<<<<1<1<<<1<<<<<1<1<<"
};
