/* XPM */
static char *close_prelight_xpm[] = {
/* columns rows colors chars-per-pixel */
"24 24 54 1 ",
"  c black",
". c #191919",
"X c #1A1A1A",
"o c #1C1C1C",
"O c #1D1D1D",
"+ c #1E1E1E",
"@ c #1F1F1F",
"# c #202020",
"$ c #212121",
"% c #222222",
"& c #242424",
"* c #333333",
"= c #343434",
"- c #383838",
"; c #3F3F3F",
": c #404040",
"> c #464646",
", c #474747",
"< c #484848",
"1 c #494949",
"2 c #4A4A4A",
"3 c #4B4B4B",
"4 c #4C4C4C",
"5 c #4D4D4D",
"6 c #4E4E4E",
"7 c #4F4F4F",
"8 c #525252",
"9 c #535353",
"0 c #545454",
"q c #565656",
"w c #5B5B5B",
"e c #5D5D5D",
"r c #5E5E5E",
"t c #686868",
"y c #6B6B6B",
"u c #707070",
"i c #717171",
"p c #929292",
"a c #949494",
"s c gray59",
"d c #989898",
"f c #999999",
"g c #9A9A9A",
"h c #9B9B9B",
"j c gray62",
"k c #9F9F9F",
"l c #A1A1A1",
"z c #A6A6A6",
"x c #A7A7A7",
"c c #A9A9A9",
"v c #F8F8F8",
"b c #F9F9F9",
"n c #FBFBFB",
"m c white",
/* pixels */
"                        ",
"uuuuuuuuuuuuuuuuuuuuuuuu",
"777777777777777777777777",
"666677676776666677676776",
"666666676766666666676766",
"666666666655666666666655",
"565555564=$X.%*355566656",
"5555555>#X+@@OX#>5555565",
"5555553#o@@@@@@o#3555555",
"445444*X@vs@@pn#X*555444",
"444444$O@jmhfmx@O$444444",
"433444.++#lmmc#@+.443434",
"443336.+@+ammz#++X634333",
"333338%O+dmlkmh+o%833333",
"333328-.+vg@#gb#.-823322",
"323224e#X++++++X#e432232",
"2212229w#.o++o.$w9221222",
"2112211qt:&XX&;t01122222",
"121111114ryiiyr411111111",
"11<<<1<1111111<<<1<11111",
"<1<1111<<<1<<1<1111<<<1<",
"<<<1<<<<<<<<<<<1<<<<<<<<",
",<<<<,<<<,,<,<<<<,<<<,,<",
",<,,,,,<,<,,,<,,,,,<,<,,"
};
