/* XPM */
static char *close_inactive_xpm[] = {
/* columns rows colors chars-per-pixel */
"24 24 46 1 ",
"  c black",
". c #2B2B2B",
"X c #2C2C2C",
"o c #2D2D2D",
"O c #2E2E2E",
"+ c #2F2F2F",
"@ c #303030",
"# c #313131",
"$ c #323232",
"% c #333333",
"& c #343434",
"* c #353535",
"= c #363636",
"- c #373737",
"; c #383838",
": c #393939",
"> c #3A3A3A",
", c #404040",
"< c #414141",
"1 c #434343",
"2 c #474747",
"3 c #484848",
"4 c #494949",
"5 c #4A4A4A",
"6 c #4B4B4B",
"7 c #4C4C4C",
"8 c #4D4D4D",
"9 c #4E4E4E",
"0 c #4F4F4F",
"q c #505050",
"w c #515151",
"e c #525252",
"r c #535353",
"t c #555555",
"y c #565656",
"u c #575757",
"i c #585858",
"p c #5A5A5A",
"a c #5C5C5C",
"s c #5D5D5D",
"d c #5E5E5E",
"f c #616161",
"g c #666666",
"h c #676767",
"j c #6D6D6D",
"k c #707070",
/* pixels */
"                        ",
"kkkkkkkkkkkkkkkkkkkkkkkk",
"000000000000000000000000",
"999900909009999900909009",
"999999909099999999909099",
"999999999988999999999988",
"898888898<*#@=,788899989",
"88888884*Oo..XO*48888898",
"8888887*O&pjjs;O=7888888",
"778777,+&gsuush&+,888777",
"777777=ottrrrrtto=777777",
"766777$XueweewwiX$776767",
"776668%Xq000qq00X%867666",
"666660-O1999999<O;066666",
"6666591@#577884+@1956655",
"656556t;++,34,@+-y665565",
"554555qu;#OooO@:y0554555",
"5445544wa5>&&>4aw4455555",
"454444446tdffdt644444444",
"443334344444443334344444",
"343444433343343444433343",
"333433333333333433333333",
"233332333223233332333223",
"232222232322232222232322"
};
