/* XPM */
static char *hide_pressed_xpm[] = {
/* columns rows colors chars-per-pixel */
"24 24 41 1 ",
"  c black",
". c #141414",
"X c #151515",
"o c #161616",
"O c #171717",
"+ c #181818",
"@ c #191919",
"# c #1C1C1C",
"$ c #1D1D1D",
"% c #1E1E1E",
"& c #1F1F1F",
"* c #313131",
"= c #343434",
"- c #353535",
"; c #3C3C3C",
": c #3D3D3D",
"> c #454545",
", c #474747",
"< c #484848",
"1 c #494949",
"2 c #4A4A4A",
"3 c #4B4B4B",
"4 c #4C4C4C",
"5 c #4D4D4D",
"6 c #4E4E4E",
"7 c #4F4F4F",
"8 c #525252",
"9 c #535353",
"0 c #545454",
"q c #565656",
"w c #595959",
"e c #5A5A5A",
"r c #5C5C5C",
"t c #5D5D5D",
"y c #5E5E5E",
"u c #686868",
"i c #6B6B6B",
"p c #707070",
"a c #717171",
"s c #B9B9B9",
"d c #BABABA",
/* pixels */
"                        ",
"pppppppppppppppppppppppp",
"777777777777777777777777",
"666677676776666677676776",
"666666676766666666676766",
"666666666655666666666655",
"565555563*%XX%*255566656",
"5555555>#X+@@+X#>5555565",
"5555552#o@@@@@@o#2555555",
"445444*X@@@@@@@@X*555444",
"444444$O@@@@@@@@O$444444",
"433444X@@dsddss@@X443434",
"443336X+@sssdds@+X634333",
"333338%O@@@@@@@@O%833333",
"333328=.@@++@@@@.-823322",
"323224r#X+@+@+@X#t432232",
"2212229e$.O++O.$w9221222",
"2112211qu:&XX&;u01122222",
"121111114yiaaiy411111111",
"11<<<1<1111111<<<1<11111",
"<1<1111<<<1<<1<1111<<<1<",
"<<<1<<<<<<<<<<<1<<<<<<<<",
",<<<<,<<<,,<,<<<<,<<<,,<",
",<,,,,,<,<,,,<,,,,,<,<,,"
};
