/* XPM */
static char *maximize_active_xpm[] = {
/* columns rows colors chars-per-pixel */
"24 24 66 1 ",
"  c black",
". c #171717",
"X c #181818",
"o c #191919",
"O c #1A1A1A",
"+ c #1B1B1B",
"@ c #1C1C1C",
"# c #1D1D1D",
"$ c #1E1E1E",
"% c #1F1F1F",
"& c #202020",
"* c #212121",
"= c #222222",
"- c #232323",
"; c #262626",
": c #272727",
"> c #292929",
", c #2C2C2C",
"< c #2D2D2D",
"1 c #2E2E2E",
"2 c #313131",
"3 c #323232",
"4 c #383838",
"5 c #393939",
"6 c #3A3A3A",
"7 c #3F3F3F",
"8 c #404040",
"9 c #414141",
"0 c #424242",
"q c #474747",
"w c #484848",
"e c #494949",
"r c #4A4A4A",
"t c #4B4B4B",
"y c #4C4C4C",
"u c #4D4D4D",
"i c #4E4E4E",
"p c #4F4F4F",
"a c #515151",
"s c #525252",
"d c #535353",
"f c #545454",
"g c #565656",
"h c #575757",
"j c #5A5A5A",
"k c #5B5B5B",
"l c #5C5C5C",
"z c #5D5D5D",
"x c #5E5E5E",
"c c #606060",
"v c #616161",
"b c #646464",
"n c #656565",
"m c #666666",
"M c #686868",
"N c #696969",
"B c #6A6A6A",
"V c #6B6B6B",
"C c #6F6F6F",
"Z c #707070",
"A c #717171",
"S c #737373",
"D c #787878",
"F c #848484",
"G c #858585",
"H c #8F8F8F",
/* pixels */
"                        ",
"ZZZZZZZZZZZZZZZZZZZZZZZZ",
"pppppppppppppppppppppppp",
"iiiippipippiiiiippipippi",
"iiiiiiipipiiiiiiiiipipii",
"iiiiiiiiiiuuiiiiiiiiiiuu",
"uiuuuuuiy4:%%:4tuuuiiiui",
"uuuuuuuq;+o..X+;quuuuuiu",
"uuuuuut:O:ZHHS<+:tuuuuuu",
"yyuyyy5@:FDCCDG:@4uuuyyy",
"yyyyyy>OnNmmmmBbO>yyyyyy",
"yttyyy=oBvcvvccVo=yytyty",
"yyttti-okkkkllkjo-ityttt",
"ttttts,@0hhhhhh9@,sttttt",
"ttttrs7%=uaaasu&%8srttrr",
"trtrryx<$%6er5%$,zytrrtr",
"rrerrrdx1*#++#&1xdrrerrr",
"reerreegMr3::2eMfeerrrrr",
"ereeeeeeyxVAAVxyeeeeeeee",
"eewwweweeeeeeewwweweeeee",
"weweeeewwwewweweeeewwwew",
"wwwewwwwwwwwwwwewwwwwwww",
"qwwwwqwwwqqwqwwwwqwwwqqw",
"qwqqqqqwqwqqqwqqqqqwqwqq"
};
