/* XPM */
static char *maximize_prelight_xpm[] = {
/* columns rows colors chars-per-pixel */
"24 24 45 1 ",
"  c black",
". c #191919",
"X c #1A1A1A",
"o c #1C1C1C",
"O c #1D1D1D",
"+ c #1E1E1E",
"@ c #1F1F1F",
"# c #202020",
"$ c #212121",
"% c #222222",
"& c #232323",
"* c #242424",
"= c #252525",
"- c #333333",
"; c #343434",
": c #383838",
"> c #3F3F3F",
", c #404040",
"< c #464646",
"1 c #474747",
"2 c #484848",
"3 c #494949",
"4 c #4A4A4A",
"5 c #4B4B4B",
"6 c #4C4C4C",
"7 c #4D4D4D",
"8 c #4E4E4E",
"9 c #4F4F4F",
"0 c #525252",
"q c #535353",
"w c #545454",
"e c #565656",
"r c #5B5B5B",
"t c #5D5D5D",
"y c #5E5E5E",
"u c #686868",
"i c #6B6B6B",
"p c #707070",
"a c #717171",
"s c #B1B1B1",
"d c #B7B7B7",
"f c #BDBDBD",
"g c #D2D2D2",
"h c #D5D5D5",
"j c white",
/* pixels */
"                        ",
"pppppppppppppppppppppppp",
"999999999999999999999999",
"888899898998888899898998",
"888888898988888888898988",
"888888888877888888888877",
"787777786;$X.%-577788878",
"7777777<#X+@@OX#<7777787",
"7777775#o@@@@@@o#5777777",
"667666-X@@&djjg@X-777666",
"666666$O@&@&djj@O$666666",
"655666.+#f=@$sj@+.665656",
"665558.+#jf=@$s++X856555",
"555550%O#jjd&+&+o%055555",
"555540:.+hjjd&++.:045544",
"545446t#X++++++X#t654454",
"443444qr#.o++o.$rq443444",
"4334433eu,*XX*>uw3344444",
"343333336yiaaiy633333333",
"332223233333332223233333",
"232333322232232333322232",
"222322222222222322222222",
"122221222112122221222112",
"121111121211121111121211"
};
