/* XPM */
static char *maximize_pressed_xpm[] = {
/* columns rows colors chars-per-pixel */
"24 24 48 1 ",
"  c black",
". c #141414",
"X c #151515",
"o c #161616",
"O c #171717",
"+ c #181818",
"@ c #191919",
"# c #1A1A1A",
"$ c #1B1B1B",
"% c #1C1C1C",
"& c #1D1D1D",
"* c #1E1E1E",
"= c #1F1F1F",
"- c #313131",
"; c #343434",
": c #353535",
"> c #3C3C3C",
", c #3D3D3D",
"< c #454545",
"1 c #474747",
"2 c #484848",
"3 c #494949",
"4 c #4A4A4A",
"5 c #4B4B4B",
"6 c #4C4C4C",
"7 c #4D4D4D",
"8 c #4E4E4E",
"9 c #4F4F4F",
"0 c #525252",
"q c #535353",
"w c #545454",
"e c #565656",
"r c #595959",
"t c #5A5A5A",
"y c #5C5C5C",
"u c #5D5D5D",
"i c #5E5E5E",
"p c #686868",
"a c #6B6B6B",
"s c #707070",
"d c #717171",
"f c #828282",
"g c #868686",
"h c #8B8B8B",
"j c #9A9A9A",
"k c gray61",
"l c #B9B9B9",
"z c #BABABA",
/* pixels */
"                        ",
"ssssssssssssssssssssssss",
"999999999999999999999999",
"888899898998888899898998",
"888888898988888888898988",
"888888888877888888888877",
"787777785-*XX*-477788878",
"7777777<%X+@@+X%<7777787",
"7777774%o@@@@@@o%4777777",
"667666-X@@&gzzj@X-777666",
"666666&O@&@&gzz@O&666666",
"655666X@#h&@$fl@@X665656",
"665558X+#lh&@$f@+X856555",
"555550*O#llg%@%@O*055555",
"555540;.@kllg%@@.:045544",
"545446y%X+@+@+@X%u654454",
"443444qt&.O++O.&rq443444",
"4334433ep,=XX=>pw3344444",
"343333336iaddai633333333",
"332223233333332223233333",
"232333322232232333322232",
"222322222222222322222222",
"122221222112122221222112",
"121111121211121111121211"
};
