/* XPM */
static char *menu_inactive_xpm[] = {
/* columns rows colors chars-per-pixel */
"16 22 25 1 ",
"  c #474747",
". c #484848",
"X c #494949",
"o c #4A4A4A",
"O c #4B4B4B",
"+ c #4C4C4C",
"@ c #4D4D4D",
"# c #4E4E4E",
"$ c #4F4F4F",
"% c #555555",
"& c #595959",
"* c #5A5A5A",
"= c #5C5C5C",
"- c #767676",
"; c #828282",
": c #848484",
"> c #888888",
", c #898989",
"< c #8A8A8A",
"1 c #8B8B8B",
"2 c #A1A1A1",
"3 c #A2A2A2",
"4 c #A3A3A3",
"5 c #A5A5A5",
"6 c None",
/* pixels */
"6666666666666666",
"6666666666666666",
"$$$$$$$$$$$$$$$$",
"$$$$$$$$$$$$$$$$",
"################",
"################",
"@@@@@@@@@@@@@@@@",
"@@@@@@@@@@@@@@@@",
"@@@@@@@@@@@@@@@@",
"++++-=++++=-++++",
"++++15%++%5<++++",
"OOOOO;4*&3:OOOOO",
"OOOOOO>22,OOOOOO",
"OOOOOOO,,OOOOOOO",
"oooooooooooooooo",
"oooooooooooooooo",
"XXXXXXXXXXXXXXXX",
"XXXXXXXXXXXXXXXX",
"XXXXXXXXXXXXXXXX",
"................",
"................",
"                "
};
