/* XPM */
static char *menu_active_xpm[] = {
/* columns rows colors chars-per-pixel */
"16 22 26 1 ",
"  c #474747",
". c #484848",
"X c #494949",
"o c #4A4A4A",
"O c #4B4B4B",
"+ c #4C4C4C",
"@ c #4D4D4D",
"# c #4E4E4E",
"$ c #4F4F4F",
"% c #5E5E5E",
"& c #676767",
"* c #6A6A6A",
"= c #6E6E6E",
"- c #A2A2A2",
"; c #BABABA",
": c #BEBEBE",
"> c #C6C6C6",
", c #C7C7C7",
"< c #C9C9C9",
"1 c #CACACA",
"2 c #F8F8F8",
"3 c #F9F9F9",
"4 c gray98",
"5 c #FBFBFB",
"6 c white",
"7 c None",
/* pixels */
"7777777777777777",
"7777777777777777",
"$$$$$$$$$$$$$$$$",
"$$$$$$$$$$$$$$$$",
"################",
"################",
"@@@@@@@@@@@@@@@@",
"@@@@@@@@@@@@@@@@",
"@@@@@@@@@@@@@@@@",
"++++-=++++=-++++",
"++++16%++%6<++++",
"OOOOO;5*&4:OOOOO",
"OOOOOO>23,OOOOOO",
"OOOOOO+,,+OOOOOO",
"oooooooooooooooo",
"oooooooooooooooo",
"XXXXXXXXXXXXXXXX",
"XXXXXXXXXXXXXXXX",
"XXXXXXXXXXXXXXXX",
"................",
"................",
"                "
};
