/* XPM */
static char *shade_pressed_xpm[] = {
/* columns rows colors chars-per-pixel */
"16 22 13 1 ",
"  c #474747",
". c #484848",
"X c #494949",
"o c #4A4A4A",
"O c #4B4B4B",
"+ c #4C4C4C",
"@ c #4D4D4D",
"# c #4E4E4E",
"$ c #4F4F4F",
"% c #929292",
"& c #939393",
"* c #949494",
"= c None",
/* pixels */
"================",
"================",
"$$$$$$$$$$$$$$$$",
"$$$$$$$$$$$$$$$$",
"################",
"################",
"@@@@@@@@@@@@@@@@",
"@@@@@@@@@@@@@@@@",
"@@@@@@@**@@@@@@@",
"++++++&&&&++++++",
"+++++&&&&&&+++++",
"OOOO&&&&&&&&OOOO",
"OOOOOOOOOOOOOOOO",
"OOOO&&&&&&&&OOOO",
"oooo%%%%%%%%oooo",
"oooooooooooooooo",
"XXXXXXXXXXXXXXXX",
"XXXXXXXXXXXXXXXX",
"XXXXXXXXXXXXXXXX",
"................",
"................",
"                "
};
