/* XPM */
static char *stick_active_xpm[] = {
/* columns rows colors chars-per-pixel */
"16 22 12 1 ",
"  c #474747",
". c #484848",
"X c #494949",
"o c #4A4A4A",
"O c #4B4B4B",
"+ c #4C4C4C",
"@ c #4D4D4D",
"# c #4E4E4E",
"$ c #4F4F4F",
"% c #DADADA",
"& c #DBDBDB",
"* c None",
/* pixels */
"****************",
"****************",
"$$$$$$$$$$$$$$$$",
"$$$$$$$$$$$$$$$$",
"################",
"################",
"@@@@@@@@@@@@@@@@",
"@@@@@@@&&@@@@@@@",
"@@@@@@@&&@@@@@@@",
"+++++++&&+++++++",
"++++&&&&&&&&++++",
"OOOO&&&&&&&&OOOO",
"OOOOOOO&&OOOOOOO",
"OOOOOOO&&OOOOOOO",
"ooooooo%%ooooooo",
"oooooooooooooooo",
"XXXXXXXXXXXXXXXX",
"XXXXXXXXXXXXXXXX",
"XXXXXXXXXXXXXXXX",
"................",
"................",
"                "
};
