/* XPM */
static char *title_1_active_xpm[] = {
/* columns rows colors chars-per-pixel */
"12 24 11 1 ",
"  c black",
". c #474747",
"X c #484848",
"o c #494949",
"O c #4A4A4A",
"+ c #4B4B4B",
"@ c #4C4C4C",
"# c #4D4D4D",
"$ c #4E4E4E",
"% c #4F4F4F",
"& c #707070",
/* pixels */
"            ",
"&&&&&&&&&&&&",
"%%%%%%%%%%%%",
"$$$$%%$%$%%$",
"$$$$$$$%$%$$",
"$$$$$$$$$$##",
"#$#####$$$#$",
"##########$#",
"############",
"@@#@@@###@@@",
"@@@@@@@@@@@@",
"@++@@@@@+@+@",
"@@+++@@+@+++",
"++++++++++++",
"++++OOOO++OO",
"+O+OOOO+OO+O",
"OOoOOOOOoOOO",
"OooOOooOOOOO",
"oOoooooooooo",
"ooXXXoXooooo",
"XoXooooXXXoX",
"XXXoXXXXXXXX",
".XXXX.XXX..X",
".X.....X.X.."
};
