/* XPM */
static char *top_left_active_xpm[] = {
/* columns rows colors chars-per-pixel */
"5 24 22 1 ",
"  c black",
". c gray2",
"X c #0B0B0B",
"o c #262626",
"O c #2F2F2F",
"+ c #353535",
"@ c #383838",
"# c #444444",
"$ c #474747",
"% c #484848",
"& c #494949",
"* c #4A4A4A",
"= c #4B4B4B",
"- c #4C4C4C",
"; c #4D4D4D",
": c #4E4E4E",
"> c #4F4F4F",
", c #515151",
"< c #595959",
"1 c #6C6C6C",
"2 c #707070",
"3 c None",
/* pixels */
"333 X",
"3+o#2",
"3O1<>",
" @,>>",
".::::",
" ::::",
" ;;;;",
" ;;;;",
" ;;;;",
" ----",
" ----",
" ====",
" ====",
" ====",
" ****",
" ****",
" &&&&",
" &&&&",
" &&&&",
" %%%%",
" %%%%",
" $$$$",
" %%%%",
" $$$$"
};
